<mxfile host="app.diagrams.net" modified="2024-05-28T12:31:04.481Z" agent="Mozilla/5.0 (Windows NT 10.0; Win64; x64) AppleWebKit/537.36 (KHTML, like Gecko) Chrome/125.0.0.0 Safari/537.36" etag="piP6BPiAWajEZEM8JgOR" version="24.4.9" type="google">
  <diagram name="페이지-1" id="t2JNBKA_pBSPJBiWYtzu">
    <mxGraphModel grid="1" page="1" gridSize="10" guides="1" tooltips="1" connect="1" arrows="1" fold="1" pageScale="1" pageWidth="827" pageHeight="1169" math="0" shadow="0">
      <root>
        <mxCell id="0" />
        <mxCell id="1" parent="0" />
        <mxCell id="iOJNzUVscHR5L0d4cF3J-86" value="PreviewSystemData" style="swimlane;fontStyle=3;align=center;verticalAlign=top;childLayout=stackLayout;horizontal=1;startSize=30;horizontalStack=0;resizeParent=1;resizeLast=0;collapsible=1;marginBottom=0;rounded=0;shadow=0;strokeWidth=1;" vertex="1" parent="1">
          <mxGeometry x="920" y="320" width="360" height="460" as="geometry">
            <mxRectangle x="230" y="140" width="160" height="26" as="alternateBounds" />
          </mxGeometry>
        </mxCell>
        <mxCell id="iOJNzUVscHR5L0d4cF3J-87" value="- structureCategoryType : StructureCategoryType" style="text;align=left;verticalAlign=top;spacingLeft=4;spacingRight=4;overflow=hidden;rotatable=0;points=[[0,0.5],[1,0.5]];portConstraint=eastwest;" vertex="1" parent="iOJNzUVscHR5L0d4cF3J-86">
          <mxGeometry y="30" width="360" height="30" as="geometry" />
        </mxCell>
        <mxCell id="iOJNzUVscHR5L0d4cF3J-88" value="- structureNumber : int" style="text;align=left;verticalAlign=top;spacingLeft=4;spacingRight=4;overflow=hidden;rotatable=0;points=[[0,0.5],[1,0.5]];portConstraint=eastwest;" vertex="1" parent="iOJNzUVscHR5L0d4cF3J-86">
          <mxGeometry y="60" width="360" height="30" as="geometry" />
        </mxCell>
        <mxCell id="iOJNzUVscHR5L0d4cF3J-113" value="- size : Vector2Int" style="text;align=left;verticalAlign=top;spacingLeft=4;spacingRight=4;overflow=hidden;rotatable=0;points=[[0,0.5],[1,0.5]];portConstraint=eastwest;" vertex="1" parent="iOJNzUVscHR5L0d4cF3J-86">
          <mxGeometry y="90" width="360" height="30" as="geometry" />
        </mxCell>
        <mxCell id="iOJNzUVscHR5L0d4cF3J-90" value="- previewStructureObject : GameObject" style="text;align=left;verticalAlign=top;spacingLeft=4;spacingRight=4;overflow=hidden;rotatable=0;points=[[0,0.5],[1,0.5]];portConstraint=eastwest;" vertex="1" parent="iOJNzUVscHR5L0d4cF3J-86">
          <mxGeometry y="120" width="360" height="30" as="geometry" />
        </mxCell>
        <mxCell id="iOJNzUVscHR5L0d4cF3J-91" value="- previewFloorObject : GameObject" style="text;align=left;verticalAlign=top;spacingLeft=4;spacingRight=4;overflow=hidden;rotatable=0;points=[[0,0.5],[1,0.5]];portConstraint=eastwest;" vertex="1" parent="iOJNzUVscHR5L0d4cF3J-86">
          <mxGeometry y="150" width="360" height="30" as="geometry" />
        </mxCell>
        <mxCell id="uR_ZDgucZtJ9WHCmxJtx-1" value="- previewMaterialPrefab : Material" style="text;align=left;verticalAlign=top;spacingLeft=4;spacingRight=4;overflow=hidden;rotatable=0;points=[[0,0.5],[1,0.5]];portConstraint=eastwest;" vertex="1" parent="iOJNzUVscHR5L0d4cF3J-86">
          <mxGeometry y="180" width="360" height="30" as="geometry" />
        </mxCell>
        <mxCell id="uR_ZDgucZtJ9WHCmxJtx-2" value="- previewFoliageMaterialPrefab : Material" style="text;align=left;verticalAlign=top;spacingLeft=4;spacingRight=4;overflow=hidden;rotatable=0;points=[[0,0.5],[1,0.5]];portConstraint=eastwest;" vertex="1" parent="iOJNzUVscHR5L0d4cF3J-86">
          <mxGeometry y="210" width="360" height="30" as="geometry" />
        </mxCell>
        <mxCell id="iOJNzUVscHR5L0d4cF3J-92" value="" style="line;html=1;strokeWidth=1;align=left;verticalAlign=middle;spacingTop=-1;spacingLeft=3;spacingRight=3;rotatable=0;labelPosition=right;points=[];portConstraint=eastwest;" vertex="1" parent="iOJNzUVscHR5L0d4cF3J-86">
          <mxGeometry y="240" width="360" height="10" as="geometry" />
        </mxCell>
        <mxCell id="iOJNzUVscHR5L0d4cF3J-93" value="+ StructureCategoryType{ get; set; } : StructureCategoryType" style="text;align=left;verticalAlign=top;spacingLeft=4;spacingRight=4;overflow=hidden;rotatable=0;points=[[0,0.5],[1,0.5]];portConstraint=eastwest;" vertex="1" parent="iOJNzUVscHR5L0d4cF3J-86">
          <mxGeometry y="250" width="360" height="30" as="geometry" />
        </mxCell>
        <mxCell id="iOJNzUVscHR5L0d4cF3J-94" value="+ StructureNumber { get; set; } : int" style="text;align=left;verticalAlign=top;spacingLeft=4;spacingRight=4;overflow=hidden;rotatable=0;points=[[0,0.5],[1,0.5]];portConstraint=eastwest;" vertex="1" parent="iOJNzUVscHR5L0d4cF3J-86">
          <mxGeometry y="280" width="360" height="30" as="geometry" />
        </mxCell>
        <mxCell id="iOJNzUVscHR5L0d4cF3J-117" value="+ Size { get; set; } : Vector2Int" style="text;align=left;verticalAlign=top;spacingLeft=4;spacingRight=4;overflow=hidden;rotatable=0;points=[[0,0.5],[1,0.5]];portConstraint=eastwest;" vertex="1" parent="iOJNzUVscHR5L0d4cF3J-86">
          <mxGeometry y="310" width="360" height="30" as="geometry" />
        </mxCell>
        <mxCell id="iOJNzUVscHR5L0d4cF3J-96" value="+ PreviewStructureObject { get; set; } : GameObject" style="text;align=left;verticalAlign=top;spacingLeft=4;spacingRight=4;overflow=hidden;rotatable=0;points=[[0,0.5],[1,0.5]];portConstraint=eastwest;" vertex="1" parent="iOJNzUVscHR5L0d4cF3J-86">
          <mxGeometry y="340" width="360" height="30" as="geometry" />
        </mxCell>
        <mxCell id="iOJNzUVscHR5L0d4cF3J-97" value="+ PreviewFloorObject { get; set; } : GameObject" style="text;align=left;verticalAlign=top;spacingLeft=4;spacingRight=4;overflow=hidden;rotatable=0;points=[[0,0.5],[1,0.5]];portConstraint=eastwest;" vertex="1" parent="iOJNzUVscHR5L0d4cF3J-86">
          <mxGeometry y="370" width="360" height="30" as="geometry" />
        </mxCell>
        <mxCell id="uR_ZDgucZtJ9WHCmxJtx-4" value="+ PreviewMaterialPrefab { get; set; } : Material" style="text;align=left;verticalAlign=top;spacingLeft=4;spacingRight=4;overflow=hidden;rotatable=0;points=[[0,0.5],[1,0.5]];portConstraint=eastwest;" vertex="1" parent="iOJNzUVscHR5L0d4cF3J-86">
          <mxGeometry y="400" width="360" height="30" as="geometry" />
        </mxCell>
        <mxCell id="uR_ZDgucZtJ9WHCmxJtx-3" value="+ PreviewFoliageMaterialPrefab { get; set; } : Material" style="text;align=left;verticalAlign=top;spacingLeft=4;spacingRight=4;overflow=hidden;rotatable=0;points=[[0,0.5],[1,0.5]];portConstraint=eastwest;" vertex="1" parent="iOJNzUVscHR5L0d4cF3J-86">
          <mxGeometry y="430" width="360" height="30" as="geometry" />
        </mxCell>
        <mxCell id="iOJNzUVscHR5L0d4cF3J-100" value="&lt;span style=&quot;font-size: 20px; text-wrap: nowrap;&quot;&gt;&lt;i&gt;PreviewSystemData&lt;/i&gt;&lt;/span&gt;" style="shape=umlFrame;whiteSpace=wrap;html=1;pointerEvents=0;width=240;height=80;fontStyle=1" vertex="1" parent="1">
          <mxGeometry x="880" y="200" width="1120" height="720" as="geometry" />
        </mxCell>
        <mxCell id="iOJNzUVscHR5L0d4cF3J-101" value="PreviewSystemData" style="swimlane;fontStyle=3;align=center;verticalAlign=top;childLayout=stackLayout;horizontal=1;startSize=30;horizontalStack=0;resizeParent=1;resizeLast=0;collapsible=1;marginBottom=0;rounded=0;shadow=0;strokeWidth=1;" vertex="1" parent="1">
          <mxGeometry x="1360" y="560" width="600" height="308" as="geometry">
            <mxRectangle x="230" y="140" width="160" height="26" as="alternateBounds" />
          </mxGeometry>
        </mxCell>
        <mxCell id="iOJNzUVscHR5L0d4cF3J-102" value="- structureObjectRotationTypeObserverSubject : IObserverSubject&lt;StructureObjectRotationType&gt;" style="text;align=left;verticalAlign=top;spacingLeft=4;spacingRight=4;overflow=hidden;rotatable=0;points=[[0,0.5],[1,0.5]];portConstraint=eastwest;" vertex="1" parent="iOJNzUVscHR5L0d4cF3J-101">
          <mxGeometry y="30" width="600" height="30" as="geometry" />
        </mxCell>
        <mxCell id="iOJNzUVscHR5L0d4cF3J-103" value="- worldEidtorObjectPlaceableObserverSubject : IObserverSubject&lt;int&gt;" style="text;align=left;verticalAlign=top;spacingLeft=4;spacingRight=4;overflow=hidden;rotatable=0;points=[[0,0.5],[1,0.5]];portConstraint=eastwest;" vertex="1" parent="iOJNzUVscHR5L0d4cF3J-101">
          <mxGeometry y="60" width="600" height="30" as="geometry" />
        </mxCell>
        <mxCell id="iOJNzUVscHR5L0d4cF3J-104" value="- previewObjectGridPositionObserverSubject : IObserverSubject&lt;Vector3Int&gt;" style="text;align=left;verticalAlign=top;spacingLeft=4;spacingRight=4;overflow=hidden;rotatable=0;points=[[0,0.5],[1,0.5]];portConstraint=eastwest;" vertex="1" parent="iOJNzUVscHR5L0d4cF3J-101">
          <mxGeometry y="90" width="600" height="30" as="geometry" />
        </mxCell>
        <mxCell id="iOJNzUVscHR5L0d4cF3J-105" value="- floorCollisionPositionObserverSubject : IObserverSubject&lt;float&gt;" style="text;align=left;verticalAlign=top;spacingLeft=4;spacingRight=4;overflow=hidden;rotatable=0;points=[[0,0.5],[1,0.5]];portConstraint=eastwest;" vertex="1" parent="iOJNzUVscHR5L0d4cF3J-101">
          <mxGeometry y="120" width="600" height="30" as="geometry" />
        </mxCell>
        <mxCell id="iOJNzUVscHR5L0d4cF3J-106" value="" style="line;html=1;strokeWidth=1;align=left;verticalAlign=middle;spacingTop=-1;spacingLeft=3;spacingRight=3;rotatable=0;labelPosition=right;points=[];portConstraint=eastwest;" vertex="1" parent="iOJNzUVscHR5L0d4cF3J-101">
          <mxGeometry y="150" width="600" height="8" as="geometry" />
        </mxCell>
        <mxCell id="iOJNzUVscHR5L0d4cF3J-107" value="+ PreviewSystemData ()" style="text;align=left;verticalAlign=top;spacingLeft=4;spacingRight=4;overflow=hidden;rotatable=0;points=[[0,0.5],[1,0.5]];portConstraint=eastwest;" vertex="1" parent="iOJNzUVscHR5L0d4cF3J-101">
          <mxGeometry y="158" width="600" height="30" as="geometry" />
        </mxCell>
        <mxCell id="iOJNzUVscHR5L0d4cF3J-108" value="+ StructureObjectRotationTypeObserverSubject { get; } : IObserverSubject&lt;StructureObjectRotationType&gt;" style="text;align=left;verticalAlign=top;spacingLeft=4;spacingRight=4;overflow=hidden;rotatable=0;points=[[0,0.5],[1,0.5]];portConstraint=eastwest;" vertex="1" parent="iOJNzUVscHR5L0d4cF3J-101">
          <mxGeometry y="188" width="600" height="30" as="geometry" />
        </mxCell>
        <mxCell id="iOJNzUVscHR5L0d4cF3J-109" value="+ WorldEidtorObjectPlaceableObserverSubject { get; } : IObserverSubject&lt;int&gt;" style="text;align=left;verticalAlign=top;spacingLeft=4;spacingRight=4;overflow=hidden;rotatable=0;points=[[0,0.5],[1,0.5]];portConstraint=eastwest;" vertex="1" parent="iOJNzUVscHR5L0d4cF3J-101">
          <mxGeometry y="218" width="600" height="30" as="geometry" />
        </mxCell>
        <mxCell id="iOJNzUVscHR5L0d4cF3J-110" value="+ PreviewObjectGridPositionObserverSubject { get; } : IObserverSubject&lt;Vector3Int&gt;" style="text;align=left;verticalAlign=top;spacingLeft=4;spacingRight=4;overflow=hidden;rotatable=0;points=[[0,0.5],[1,0.5]];portConstraint=eastwest;" vertex="1" parent="iOJNzUVscHR5L0d4cF3J-101">
          <mxGeometry y="248" width="600" height="30" as="geometry" />
        </mxCell>
        <mxCell id="iOJNzUVscHR5L0d4cF3J-111" value="+ FloorCollisionPositionObserverSubject { get; } : IObserverSubject&lt;float&gt;" style="text;align=left;verticalAlign=top;spacingLeft=4;spacingRight=4;overflow=hidden;rotatable=0;points=[[0,0.5],[1,0.5]];portConstraint=eastwest;" vertex="1" parent="iOJNzUVscHR5L0d4cF3J-101">
          <mxGeometry y="278" width="600" height="30" as="geometry" />
        </mxCell>
        <mxCell id="iOJNzUVscHR5L0d4cF3J-112" value="PreviewSystemData" style="swimlane;fontStyle=3;align=center;verticalAlign=top;childLayout=stackLayout;horizontal=1;startSize=30;horizontalStack=0;resizeParent=1;resizeLast=0;collapsible=1;marginBottom=0;rounded=0;shadow=0;strokeWidth=1;" vertex="1" parent="1">
          <mxGeometry x="1360" y="240" width="400" height="278" as="geometry">
            <mxRectangle x="230" y="140" width="160" height="26" as="alternateBounds" />
          </mxGeometry>
        </mxCell>
        <mxCell id="iOJNzUVscHR5L0d4cF3J-114" value="- structureObjectRotationType : StructureObjectRotationType" style="text;align=left;verticalAlign=top;spacingLeft=4;spacingRight=4;overflow=hidden;rotatable=0;points=[[0,0.5],[1,0.5]];portConstraint=eastwest;" vertex="1" parent="iOJNzUVscHR5L0d4cF3J-112">
          <mxGeometry y="30" width="400" height="30" as="geometry" />
        </mxCell>
        <mxCell id="iOJNzUVscHR5L0d4cF3J-121" value="- previewObjectGridPosition : Vector3Int" style="text;align=left;verticalAlign=top;spacingLeft=4;spacingRight=4;overflow=hidden;rotatable=0;points=[[0,0.5],[1,0.5]];portConstraint=eastwest;" vertex="1" parent="iOJNzUVscHR5L0d4cF3J-112">
          <mxGeometry y="60" width="400" height="30" as="geometry" />
        </mxCell>
        <mxCell id="iOJNzUVscHR5L0d4cF3J-122" value="- floorCollisionPosition : float" style="text;align=left;verticalAlign=top;spacingLeft=4;spacingRight=4;overflow=hidden;rotatable=0;points=[[0,0.5],[1,0.5]];portConstraint=eastwest;" vertex="1" parent="iOJNzUVscHR5L0d4cF3J-112">
          <mxGeometry y="90" width="400" height="30" as="geometry" />
        </mxCell>
        <mxCell id="iOJNzUVscHR5L0d4cF3J-115" value="- worldEidtorObjectPlaceable : int" style="text;align=left;verticalAlign=top;spacingLeft=4;spacingRight=4;overflow=hidden;rotatable=0;points=[[0,0.5],[1,0.5]];portConstraint=eastwest;" vertex="1" parent="iOJNzUVscHR5L0d4cF3J-112">
          <mxGeometry y="120" width="400" height="30" as="geometry" />
        </mxCell>
        <mxCell id="iOJNzUVscHR5L0d4cF3J-116" value="" style="line;html=1;strokeWidth=1;align=left;verticalAlign=middle;spacingTop=-1;spacingLeft=3;spacingRight=3;rotatable=0;labelPosition=right;points=[];portConstraint=eastwest;" vertex="1" parent="iOJNzUVscHR5L0d4cF3J-112">
          <mxGeometry y="150" width="400" height="8" as="geometry" />
        </mxCell>
        <mxCell id="iOJNzUVscHR5L0d4cF3J-118" value="+ StructureObjectRotationType { get; set; } : StructureObjectRotationType" style="text;align=left;verticalAlign=top;spacingLeft=4;spacingRight=4;overflow=hidden;rotatable=0;points=[[0,0.5],[1,0.5]];portConstraint=eastwest;" vertex="1" parent="iOJNzUVscHR5L0d4cF3J-112">
          <mxGeometry y="158" width="400" height="30" as="geometry" />
        </mxCell>
        <mxCell id="iOJNzUVscHR5L0d4cF3J-124" value="+ PreviewObjectGridPosition { get; set; } : Vector3Int" style="text;align=left;verticalAlign=top;spacingLeft=4;spacingRight=4;overflow=hidden;rotatable=0;points=[[0,0.5],[1,0.5]];portConstraint=eastwest;" vertex="1" parent="iOJNzUVscHR5L0d4cF3J-112">
          <mxGeometry y="188" width="400" height="30" as="geometry" />
        </mxCell>
        <mxCell id="iOJNzUVscHR5L0d4cF3J-119" value="+ WorldEidtorObjectPlaceable { get; set; } : int" style="text;align=left;verticalAlign=top;spacingLeft=4;spacingRight=4;overflow=hidden;rotatable=0;points=[[0,0.5],[1,0.5]];portConstraint=eastwest;" vertex="1" parent="iOJNzUVscHR5L0d4cF3J-112">
          <mxGeometry y="218" width="400" height="30" as="geometry" />
        </mxCell>
        <mxCell id="iOJNzUVscHR5L0d4cF3J-125" value="+ FloorCollisionPosition { get; set; } : float" style="text;align=left;verticalAlign=top;spacingLeft=4;spacingRight=4;overflow=hidden;rotatable=0;points=[[0,0.5],[1,0.5]];portConstraint=eastwest;" vertex="1" parent="iOJNzUVscHR5L0d4cF3J-112">
          <mxGeometry y="248" width="400" height="30" as="geometry" />
        </mxCell>
        <mxCell id="ePOHFccawzcpsqp2HrzU-1" value="&lt;span style=&quot;font-weight: 700;&quot;&gt;PreviewObjectData&lt;/span&gt;" style="html=1;whiteSpace=wrap;" vertex="1" parent="1">
          <mxGeometry x="560" y="240" width="200" height="40" as="geometry" />
        </mxCell>
        <mxCell id="uR_ZDgucZtJ9WHCmxJtx-17" style="edgeStyle=orthogonalEdgeStyle;rounded=0;orthogonalLoop=1;jettySize=auto;html=1;endArrow=diamondThin;endFill=1;" edge="1" parent="1" source="uR_ZDgucZtJ9WHCmxJtx-5" target="iOJNzUVscHR5L0d4cF3J-101">
          <mxGeometry relative="1" as="geometry" />
        </mxCell>
        <mxCell id="uR_ZDgucZtJ9WHCmxJtx-5" value="IObserverSubject&amp;lt;ObserverDataType&amp;gt;" style="swimlane;fontStyle=1;align=center;verticalAlign=middle;childLayout=stackLayout;horizontal=1;startSize=30;horizontalStack=0;resizeParent=1;resizeParentMax=0;resizeLast=0;collapsible=1;marginBottom=0;whiteSpace=wrap;html=1;" vertex="1" parent="1">
          <mxGeometry x="2040" y="624" width="400" height="180" as="geometry" />
        </mxCell>
        <mxCell id="uR_ZDgucZtJ9WHCmxJtx-6" value="+ RegisterObserver(&amp;nbsp;subscriber : IObserverSubscriber)&amp;nbsp;:&amp;nbsp;void" style="text;strokeColor=none;fillColor=none;align=left;verticalAlign=middle;spacingLeft=4;spacingRight=4;overflow=hidden;rotatable=0;points=[[0,0.5],[1,0.5]];portConstraint=eastwest;whiteSpace=wrap;html=1;" vertex="1" parent="uR_ZDgucZtJ9WHCmxJtx-5">
          <mxGeometry y="30" width="400" height="30" as="geometry" />
        </mxCell>
        <mxCell id="uR_ZDgucZtJ9WHCmxJtx-7" value="+ RemoveObserver(&amp;nbsp;subscriber : IObserverSubscriber)&amp;nbsp;:&amp;nbsp;void" style="text;strokeColor=none;fillColor=none;align=left;verticalAlign=middle;spacingLeft=4;spacingRight=4;overflow=hidden;rotatable=0;points=[[0,0.5],[1,0.5]];portConstraint=eastwest;whiteSpace=wrap;html=1;" vertex="1" parent="uR_ZDgucZtJ9WHCmxJtx-5">
          <mxGeometry y="60" width="400" height="30" as="geometry" />
        </mxCell>
        <mxCell id="uR_ZDgucZtJ9WHCmxJtx-8" value="+ NotifySubscribers( )&amp;nbsp;:&amp;nbsp;void" style="text;strokeColor=none;fillColor=none;align=left;verticalAlign=middle;spacingLeft=4;spacingRight=4;overflow=hidden;rotatable=0;points=[[0,0.5],[1,0.5]];portConstraint=eastwest;whiteSpace=wrap;html=1;" vertex="1" parent="uR_ZDgucZtJ9WHCmxJtx-5">
          <mxGeometry y="90" width="400" height="30" as="geometry" />
        </mxCell>
        <mxCell id="uR_ZDgucZtJ9WHCmxJtx-9" value="+ UpdateObserverData(&amp;nbsp;observerData : ObserverDataType )&amp;nbsp;:&amp;nbsp;void" style="text;strokeColor=none;fillColor=none;align=left;verticalAlign=middle;spacingLeft=4;spacingRight=4;overflow=hidden;rotatable=0;points=[[0,0.5],[1,0.5]];portConstraint=eastwest;whiteSpace=wrap;html=1;" vertex="1" parent="uR_ZDgucZtJ9WHCmxJtx-5">
          <mxGeometry y="120" width="400" height="30" as="geometry" />
        </mxCell>
        <mxCell id="uR_ZDgucZtJ9WHCmxJtx-10" value="+ GetObserverData( )&amp;nbsp;:&amp;nbsp;ObserverDataType" style="text;strokeColor=none;fillColor=none;align=left;verticalAlign=middle;spacingLeft=4;spacingRight=4;overflow=hidden;rotatable=0;points=[[0,0.5],[1,0.5]];portConstraint=eastwest;whiteSpace=wrap;html=1;" vertex="1" parent="uR_ZDgucZtJ9WHCmxJtx-5">
          <mxGeometry y="150" width="400" height="30" as="geometry" />
        </mxCell>
        <mxCell id="uR_ZDgucZtJ9WHCmxJtx-18" style="edgeStyle=orthogonalEdgeStyle;rounded=0;orthogonalLoop=1;jettySize=auto;html=1;endArrow=none;endFill=0;startArrow=diamondThin;startFill=1;" edge="1" parent="1" source="ePOHFccawzcpsqp2HrzU-1" target="uR_ZDgucZtJ9WHCmxJtx-19">
          <mxGeometry relative="1" as="geometry">
            <mxPoint x="560" y="260" as="sourcePoint" />
          </mxGeometry>
        </mxCell>
        <mxCell id="uR_ZDgucZtJ9WHCmxJtx-19" value="&lt;span style=&quot;font-weight: 700;&quot;&gt;IObserverSubject&amp;lt;ObserverDataType&amp;gt;&lt;/span&gt;" style="html=1;whiteSpace=wrap;" vertex="1" parent="1">
          <mxGeometry x="240" y="240" width="240" height="40" as="geometry" />
        </mxCell>
      </root>
    </mxGraphModel>
  </diagram>
</mxfile>
